#!OML:ASF H:\Swim 2\Project 1\Capture day 1\Session 1\male.ASF
:FULLY-SPECIFIED
:DEGREES
2107
root 7.69 8.95831 12.4086 73.1627 2.98493 178.986
lowerback 35.3192 2.51812 15.8622
upperback -4.11849 12.6764 -14.6247
thorax -20.1143 2.43392 -41.0427
lowerneck -0.125388 -26.6439 33.1552
upperneck 41.2929 -32.8549 4.99205
head 11.568 -0.451321 -1.71175
rclavicle -7.31528e-014 5.88403e-014
rhumerus 14.1533 23.8244 25.6215
rradius 45.0214
rwrist 18.8006
rhand -23.7043 10.6491
rfingers 7.12502
rthumb 2.76291 -19.3127
lclavicle -7.31528e-014 5.88403e-014
lhumerus -1434.35 -127.405 1424.97
lradius 59.991
lwrist 61.716
lhand -26.6068 44.1155
lfingers 7.12502
lthumb -0.0402762 434.095
rfemur 49.0677 7.66664 24.2858
rtibia 14.5083
rfoot 15.49 -0.537028
rtoes 26.246
lfemur 16.5998 -10.7067 -33.7029
ltibia 18.7554
lfoot -12.8499 32.3495
ltoes -47.5794
2108
root 7.68975 8.95338 12.4209 73.0461 2.99462 178.869
lowerback 35.4054 2.39873 15.8737
upperback -4.03762 12.5151 -14.6994
thorax -20.1808 2.32716 -41.2358
lowerneck 0.0785338 -26.8952 33.0043
upperneck 40.9377 -33.082 5.41093
head 11.4829 -0.57663 -1.52142
rclavicle 1.90833e-014 1.27222e-014
rhumerus 14.0268 22.9963 25.9033
rradius 44.2964
rwrist 19.6222
rhand -24.3985 11.0788
rfingers 7.12502
rthumb 2.09247 -18.8907
lclavicle 1.90833e-014 1.27222e-014
lhumerus -1433.52 -128.004 1425.73
lradius 58.3156
lwrist 62.0788
lhand -28.0455 44.3553
lfingers 7.12502
lthumb -1.42982 434.33
rfemur 48.2685 7.52464 24.0027
rtibia 15.5145
rfoot 14.683 -1.01831
rtoes 27.4093
lfemur 16.9461 -11.0039 -33.8072
ltibia 18.6605
lfoot -13.4652 32.5274
ltoes -47.8398
2109
root 7.68934 8.94655 12.4279 72.8468 3.04701 178.74
lowerback 35.6024 2.27066 15.9388
upperback -3.95294 12.383 -14.7379
thorax -20.2823 2.21162 -41.4531
lowerneck 0.261819 -27.1326 32.8065
upperneck 40.5957 -33.3183 5.8406
head 11.4143 -0.70362 -1.32862
rclavicle 1.90833e-014 -1.90833e-014
rhumerus 13.9152 22.1921 26.1707
rradius 43.5385
rwrist 20.5746
rhand -25.0828 11.4236
rfingers 7.12502
rthumb 1.43157 -18.5513
lclavicle 1.90833e-014 -1.90833e-014
lhumerus -1432.77 -128.549 1426.66
lradius 56.5317
lwrist 62.4355
lhand -28.9043 44.2189
lfingers 7.12502
lthumb -2.25924 434.187
rfemur 47.5142 7.389 23.7943
rtibia 16.3273
rfoot 13.7988 -1.46062
rtoes 28.4015
lfemur 17.4342 -11.1352 -33.854
ltibia 18.7201
lfoot -13.8282 32.4612
ltoes -47.6236
2110
root 7.6888 8.93818 12.4299 72.5782 3.14166 178.607
lowerback 35.8888 2.13151 16.0578
upperback -3.86378 12.2738 -14.7455
thorax -20.4089 2.0877 -41.6964
lowerneck 0.42138 -27.3557 32.5718
upperneck 40.2699 -33.5638 6.2761
head 11.362 -0.831396 -1.13602
rclavicle -4.45278e-014 4.77083e-015
rhumerus 13.8046 21.3982 26.4081
rradius 42.7547
rwrist 21.7209
rhand -25.7851 11.687
rfingers 7.12502
rthumb 0.753296 -18.2914
lclavicle -4.45278e-014 4.77083e-015
lhumerus -1432.08 -129.037 1427.7
lradius 54.6688
lwrist 62.7077
lhand -29.2515 43.8687
lfingers 7.12502
lthumb -2.59458 433.833
rfemur 46.7846 7.2652 23.6718
rtibia 16.9832
rfoot 12.9073 -1.80976
rtoes 29.1178
lfemur 18.0436 -11.1094 -33.8397
ltibia 18.939
lfoot -13.898 32.0893
ltoes -46.8803
2111
root 7.6883 8.92862 12.4275 72.2711 3.28832 178.472
lowerback 36.2208 1.97984 16.2386
upperback -3.75022 12.1853 -14.6904
thorax -20.5541 1.94407 -42.0016
lowerneck 0.554483 -27.5601 32.3175
upperneck 39.972 -33.8118 6.69913
head 11.3262 -0.957205 -0.951616
rclavicle 1.27222e-013 -1.59028e-014
rhumerus 13.6887 20.6102 26.6069
rradius 41.9558
rwrist 23.0529
rhand -26.5412 11.8289
rfingers 7.12502
rthumb 0.0230837 -18.1508
lclavicle 1.27222e-013 -1.59028e-014
lhumerus -1431.41 -129.465 1428.78
lradius 52.7595
lwrist 62.8302
lhand -29.1857 43.5293
lfingers 7.12502
lthumb -2.53109 433.494
rfemur 46.0334 7.15576 23.6504
rtibia 17.5334
rfoot 12.1389 -1.98156
rtoes 29.2327
lfemur 18.7431 -10.9511 -33.748
ltibia 19.3038
lfoot -13.6828 31.3698
ltoes -45.6088
2112
root 7.68771 8.91826 12.4215 71.9467 3.48488 178.335
lowerback 36.5664 1.8142 16.4806
upperback -3.65788 12.1028 -14.6464
thorax -20.6834 1.80455 -42.3006
lowerneck 0.681001 -27.747 32.0524
upperneck 39.6697 -34.0468 7.12533
head 11.2931 -1.08246 -0.769696
rclavicle -4.13472e-014 1.59028e-014
rhumerus 13.5675 19.8351 26.7711
rradius 41.1541
rwrist 24.4873
rhand -27.3837 11.9022
rfingers 7.12502
rthumb -0.790629 -18.0761
lclavicle -4.13472e-014 1.59028e-014
lhumerus -1430.75 -129.826 1429.85
lradius 50.8428
lwrist 62.7591
lhand -28.7601 43.3909
lfingers 7.12502
lthumb -2.12004 433.36
rfemur 45.2266 7.06722 23.7294
rtibia 18.0279
rfoot 11.5206 -1.98183
rtoes 28.6857
lfemur 19.5137 -10.6914 -33.585
ltibia 19.7918
lfoot -13.2315 30.2998
ltoes -43.8001
2113
root 7.68702 8.90707 12.411 71.5969 3.70791 178.202
lowerback 36.9284 1.63142 16.7644
upperback -3.55698 12.0175 -14.591
thorax -20.8062 1.658 -42.6195
lowerneck 0.810689 -27.9188 31.7854
upperneck 39.3478 -34.2615 7.5546
head 11.2536 -1.20921 -0.590323
rclavicle 1.36764e-013 1.59028e-014
rhumerus 13.4145 19.0429 26.8734
rradius 40.3627
rwrist 25.9665
rhand -28.3392 11.9366
rfingers 7.12502
rthumb -1.71352 -18.0363
lclavicle 1.36764e-013 1.59028e-014
lhumerus -1430.09 -130.112 1430.86
lradius 48.9484
lwrist 62.4959
lhand -28.1052 43.6206
lfingers 7.12502
lthumb -1.48753 433.595
rfemur 44.3665 7.00124 23.8819
rtibia 18.5162
rfoot 10.933 -1.92323
rtoes 27.8564
lfemur 20.3712 -10.3708 -33.3941
ltibia 20.3708
lfoot -12.6069 28.8762
ltoes -41.3245
2114
root 7.68619 8.89524 12.397 71.2447 3.94757 178.074
lowerback 37.2783 1.43489 17.0791
upperback -3.45032 11.9243 -14.5307
thorax -20.9144 1.50702 -42.9484
lowerneck 0.965739 -28.0731 31.5112
upperneck 38.9612 -34.4367 8.02287
head 11.194 -1.33875 -0.400528
rclavicle 5.08889e-014 -3.97569e-014
rhumerus 13.2603 18.2814 26.9626
rradius 39.5815
rwrist 27.3286
rhand -29.4147 12.0253
rfingers 7.12502
rthumb -2.75223 -17.9367
lclavicle 5.08889e-014 -3.97569e-014
lhumerus -1429.39 -130.317 1431.8
lradius 47.1074
lwrist 62.0899
lhand -27.3606 44.226
lfingers 7.12502
lthumb -0.768358 434.204
rfemur 43.4214 6.95937 24.0873
rtibia 19.0378
rfoot 10.3437 -1.83543
rtoes 26.8725
lfemur 21.2971 -10.0231 -33.1935
ltibia 21.006
lfoot -11.879 27.1356
ltoes -38.183
2115
root 7.68506 8.88312 12.3809 70.9111 4.18399 177.952
lowerback 37.5987 1.23442 17.4027
upperback -3.34268 11.8268 -14.4728
thorax -21.0049 1.35862 -43.279
lowerneck 1.13645 -28.2123 31.2393
upperneck 38.5223 -34.5785 8.50699
head 11.1139 -1.47356 -0.209326
rclavicle -1.55847e-013 3.18055e-014
rhumerus 13.0984 17.5727 27.0574
rradius 38.819
rwrist 28.5054
rhand -30.6224 12.1571
rfingers 7.12502
rthumb -3.91854 -17.7866
lclavicle -1.55847e-013 3.18055e-014
lhumerus -1428.69 -130.443 1432.68
lradius 45.3476
lwrist 61.6139
lhand -26.6321 45.2084
lfingers 7.12502
lthumb -0.0647743 435.188
rfemur 42.3701 6.94539 24.3137
rtibia 19.6173
rfoot 9.69813 -1.76199
rtoes 25.9453
lfemur 22.2743 -9.66396 -33.0055
ltibia 21.6622
lfoot -10.9916 25.1057
ltoes -34.0988
2116
root 7.6836 8.87095 12.3639 70.623 4.40627 177.84
lowerback 37.8632 1.04002 17.72
upperback -3.24181 11.7278 -14.4217
thorax -21.0734 1.21809 -43.5986
lowerneck 1.33914 -28.3382 30.9553
upperneck 38.0025 -34.6795 9.04054
head 11.0079 -1.61338 -0.00322716
rclavicle -1.59028e-013 1.25632e-013
rhumerus 12.9371 16.9397 27.1797
rradius 38.0854
rwrist 29.4528
rhand -31.9272 12.3358
rfingers 7.12502
rthumb -5.17841 -17.5809
lclavicle -1.59028e-013 1.25632e-013
lhumerus -1427.96 -130.474 1433.47
lradius 43.6809
lwrist 61.1508
lhand -26.0529 46.4552
lfingers 7.12502
lthumb 0.494677 436.434
rfemur 41.1969 6.95281 24.5322
rtibia 20.2517
rfoot 9.00159 -1.7126
rtoes 25.2152
lfemur 23.2761 -9.31302 -32.8451
ltibia 22.3131
lfoot -9.91029 22.8198
ltoes -28.7953
2117
root 7.68169 8.85916 12.3471 70.3928 4.60331 177.741
lowerback 38.057 0.856253 18.0182
upperback -3.15014 11.6228 -14.3811
thorax -21.1198 1.08611 -43.8951
lowerneck 1.5658 -28.4449 30.6585
upperneck 37.4304 -34.7389 9.60023
head 10.8842 -1.75554 0.209269
rclavicle -9.85972e-014 1.74931e-013
rhumerus 12.7883 16.3983 27.3452
rradius 37.3902
rwrist 30.191
rhand -33.2957 12.4977
rfingers 7.12502
rthumb -6.49971 -17.3826
lclavicle -9.85972e-014 1.74931e-013
lhumerus -1427.16 -130.399 1434.16
lradius 42.1095
lwrist 60.7689
lhand -25.7231 47.7741
lfingers 7.12502
lthumb 0.813185 437.752
rfemur 39.9131 6.98392 24.7253
rtibia 20.9197
rfoot 8.27102 -1.71637
rtoes 24.6196
lfemur 24.2877 -8.97611 -32.7265
ltibia 22.9394
lfoot -8.59874 20.3116
ltoes -21.9779
2118
root 7.67925 8.84837 12.3317 70.2286 4.76679 177.658
lowerback 38.1703 0.688769 18.289
upperback -3.06882 11.5135 -14.3537
thorax -21.1393 0.967538 -44.1607
lowerneck 1.80165 -28.5309 30.3466
upperneck 36.8398 -34.7679 10.162
head 10.7537 -1.89891 0.419764
rclavicle 1.20861e-013 6.67916e-014
rhumerus 12.6512 15.9474 27.5629
rradius 36.7458
rwrist 30.7772
rhand -34.6554 12.5957
rfingers 7.12502
rthumb -7.8122 -17.24
lclavicle 1.20861e-013 6.67916e-014
lhumerus -1426.28 -130.192 1434.73
lradius 40.6283
lwrist 60.4913
lhand -25.6879 48.9926
lfingers 7.12502
lthumb 0.847216 438.971
rfemur 38.5444 7.04337 24.8842
rtibia 21.5806
rfoot 7.50712 -1.82812
rtoes 24.3755
lfemur 25.2964 -8.65594 -32.6603
ltibia 23.5277
lfoot -7.04437 17.6341
ltoes -13.3765
2119
root 7.67644 8.83909 12.3187 70.1438 4.90192 177.596
lowerback 38.1879 0.540162 18.5335
upperback -3.00171 11.3992 -14.3391
thorax -21.1291 0.862547 -44.391
lowerneck 2.02561 -28.5945 30.0241
upperneck 36.2954 -34.7822 10.6816
head 10.6367 -2.03743 0.613341
rclavicle 5.08889e-014 3.18055e-015
rhumerus 12.5213 15.567 27.8199
rradius 36.1647
rwrist 31.2876
rhand -35.9457 12.6323
rfingers 7.12502
rthumb -9.05743 -17.1532
lclavicle 5.08889e-014 3.18055e-015
lhumerus -1425.3 -129.855 1435.15
lradius 39.2373
lwrist 60.353
lhand -26.0088 49.992
lfingers 7.12502
lthumb 0.537281 439.971
rfemur 37.1116 7.13032 25.0132
rtibia 22.1872
rfoot 6.82953 -2.00708
rtoes 24.1449
lfemur 26.2851 -8.3637 -32.6431
ltibia 24.0637
lfoot -5.27531 14.8237
ltoes -3.17965
